<svg width="135" height="32" viewBox="0 0 135 32" fill="none" xmlns="http://www.w3.org/2000/svg">
<path d="M16 21.6471C12.8812 21.6471 10.353 19.1188 10.353 16C10.353 12.8812 12.8812 10.3529 16 10.3529C19.1188 10.3529 21.6471 12.8812 21.6471 16C21.6471 19.1188 19.1188 21.6471 16 21.6471Z" fill="#AE9AFF"/>
<path d="M5.10548 18.2821C3.48683 18.5623 2.37733 20.0973 2.99867 21.5912C3.86615 23.6768 5.2501 25.5349 7.04429 26.987C9.60985 29.0631 12.8458 30.1725 16.1701 30.1156C19.4945 30.0586 22.689 28.839 25.1793 26.6761C26.9207 25.1636 28.2378 23.2591 29.0306 21.1451C29.5985 19.6309 28.435 18.1348 26.8074 17.9102C25.1798 17.6857 23.7185 18.8487 22.9145 20.2562C22.4787 21.019 21.913 21.7111 21.2353 22.2998C19.8065 23.5408 17.9736 24.2405 16.0663 24.2732C14.1589 24.3058 12.3023 23.6694 10.8303 22.4781C10.132 21.913 9.54208 21.2407 9.07942 20.4932C8.22596 19.1142 6.72414 18.0019 5.10548 18.2821Z" fill="#AE9AFF"/>
<path d="M30.0084 17.4048C30.0805 16.8399 30.1176 16.2644 30.1176 15.6805C30.1176 8.05998 23.797 1.88235 16 1.88235C8.20301 1.88235 1.88232 8.05998 1.88232 15.6805C1.88232 16.4299 1.94345 17.1653 2.06111 17.8824C2.70956 17.0147 3.72163 16.3954 4.8148 16.207C5.99757 16.0031 7.07252 16.2835 7.9814 16.8076C7.92771 16.4394 7.89992 16.0631 7.89992 15.6805C7.89992 11.3082 11.5265 7.76375 16 7.76375C20.4735 7.76375 24.1 11.3082 24.1 15.6805C24.1 15.9687 24.0842 16.2534 24.0535 16.5337C24.9432 15.9788 26.0077 15.6617 27.1972 15.8252C28.2962 15.9761 29.3294 16.5602 30.0084 17.4048Z" fill="#5429FF"/>
<path d="M54.6705 9.86364V21.5H53.0568L47.142 12.9659H47.0341V21.5H45.2784V9.86364H46.9034L52.8239 18.4091H52.9318V9.86364H54.6705ZM57.3915 21.5V9.86364H64.6074V11.375H59.1472V14.9205H64.0904V16.4261H59.1472V21.5H57.3915ZM66.3527 11.375V9.86364H75.3584V11.375H71.7277V21.5H69.9777V11.375H66.3527ZM81.9028 9.86364H84.0335L87.738 18.9091H87.8744L91.5789 9.86364H93.7096V21.5H92.0391V13.0795H91.9312L88.4994 21.483H87.113L83.6812 13.0739H83.5732V21.5H81.9028V9.86364ZM98.8256 21.6932C98.2725 21.6932 97.7725 21.5909 97.3256 21.3864C96.8786 21.178 96.5244 20.8769 96.2631 20.483C96.0055 20.089 95.8767 19.6061 95.8767 19.0341C95.8767 18.5417 95.9714 18.1364 96.1608 17.8182C96.3502 17.5 96.6059 17.2481 96.9278 17.0625C97.2498 16.8769 97.6097 16.7367 98.0074 16.642C98.4051 16.5473 98.8104 16.4754 99.2233 16.4261C99.746 16.3655 100.17 16.3163 100.496 16.2784C100.822 16.2367 101.059 16.1705 101.206 16.0795C101.354 15.9886 101.428 15.8409 101.428 15.6364V15.5966C101.428 15.1004 101.288 14.7159 101.007 14.4432C100.731 14.1705 100.318 14.0341 99.7687 14.0341C99.1968 14.0341 98.746 14.161 98.4165 14.4148C98.0907 14.6648 97.8653 14.9432 97.7403 15.25L96.1437 14.8864C96.3331 14.3561 96.6097 13.928 96.9733 13.6023C97.3407 13.2727 97.7631 13.0341 98.2403 12.8864C98.7176 12.7348 99.2195 12.6591 99.746 12.6591C100.095 12.6591 100.464 12.7008 100.854 12.7841C101.248 12.8636 101.615 13.0114 101.956 13.2273C102.301 13.4432 102.583 13.7519 102.803 14.1534C103.023 14.5511 103.132 15.0682 103.132 15.7045V21.5H101.473V20.3068H101.405C101.295 20.5265 101.13 20.7424 100.911 20.9545C100.691 21.1667 100.409 21.3428 100.064 21.483C99.7195 21.6231 99.3066 21.6932 98.8256 21.6932ZM99.1949 20.3295C99.6646 20.3295 100.066 20.2367 100.399 20.0511C100.737 19.8655 100.992 19.6231 101.166 19.3239C101.345 19.0208 101.434 18.697 101.434 18.3523V17.2273C101.373 17.2879 101.255 17.3447 101.081 17.3977C100.911 17.447 100.716 17.4905 100.496 17.5284C100.276 17.5625 100.062 17.5947 99.854 17.625C99.6456 17.6515 99.4714 17.6742 99.3312 17.6932C99.0017 17.7348 98.7006 17.8049 98.4278 17.9034C98.1589 18.0019 97.943 18.1439 97.7801 18.3295C97.621 18.5114 97.5415 18.7538 97.5415 19.0568C97.5415 19.4773 97.6968 19.7955 98.0074 20.0114C98.318 20.2235 98.7138 20.3295 99.1949 20.3295ZM105.555 21.5V12.7727H107.197V14.1591H107.288C107.447 13.6894 107.728 13.3201 108.129 13.0511C108.534 12.7784 108.993 12.642 109.504 12.642C109.61 12.642 109.735 12.6458 109.879 12.6534C110.027 12.661 110.142 12.6705 110.226 12.6818V14.3068C110.157 14.2879 110.036 14.267 109.862 14.2443C109.688 14.2178 109.514 14.2045 109.339 14.2045C108.938 14.2045 108.58 14.2898 108.265 14.4602C107.955 14.6269 107.709 14.8598 107.527 15.1591C107.345 15.4545 107.254 15.7917 107.254 16.1705V21.5H105.555ZM113.418 18.5398L113.407 16.4659H113.702L117.18 12.7727H119.214L115.248 16.9773H114.981L113.418 18.5398ZM111.856 21.5V9.86364H113.555V21.5H111.856ZM117.367 21.5L114.242 17.3523L115.413 16.1648L119.452 21.5H117.367ZM124.324 21.6761C123.464 21.6761 122.724 21.4924 122.102 21.125C121.485 20.7538 121.008 20.233 120.671 19.5625C120.337 18.8883 120.171 18.0985 120.171 17.1932C120.171 16.2992 120.337 15.5114 120.671 14.8295C121.008 14.1477 121.477 13.6155 122.08 13.233C122.686 12.8504 123.394 12.6591 124.205 12.6591C124.697 12.6591 125.174 12.7405 125.637 12.9034C126.099 13.0663 126.513 13.322 126.881 13.6705C127.248 14.0189 127.538 14.4716 127.75 15.0284C127.962 15.5814 128.068 16.2538 128.068 17.0455V17.6477H121.131V16.375H126.404C126.404 15.928 126.313 15.5322 126.131 15.1875C125.949 14.839 125.693 14.5644 125.364 14.3636C125.038 14.1629 124.655 14.0625 124.216 14.0625C123.739 14.0625 123.322 14.1799 122.966 14.4148C122.614 14.6458 122.341 14.9489 122.148 15.3239C121.959 15.6951 121.864 16.0985 121.864 16.5341V17.5284C121.864 18.1117 121.966 18.608 122.171 19.017C122.379 19.4261 122.669 19.7386 123.04 19.9545C123.411 20.1667 123.845 20.2727 124.341 20.2727C124.663 20.2727 124.957 20.2273 125.222 20.1364C125.487 20.0417 125.716 19.9015 125.909 19.7159C126.102 19.5303 126.25 19.3011 126.352 19.0284L127.96 19.3182C127.832 19.7917 127.601 20.2064 127.267 20.5625C126.938 20.9148 126.523 21.1894 126.023 21.3864C125.527 21.5795 124.96 21.6761 124.324 21.6761ZM134.187 12.7727V14.1364H129.42V12.7727H134.187ZM130.699 10.6818H132.397V18.9375C132.397 19.267 132.447 19.5152 132.545 19.6818C132.644 19.8447 132.77 19.9564 132.926 20.017C133.085 20.0739 133.257 20.1023 133.443 20.1023C133.579 20.1023 133.699 20.0928 133.801 20.0739C133.903 20.0549 133.983 20.0398 134.039 20.0284L134.346 21.4318C134.248 21.4697 134.108 21.5076 133.926 21.5455C133.744 21.5871 133.517 21.6098 133.244 21.6136C132.797 21.6212 132.38 21.5417 131.994 21.375C131.608 21.2083 131.295 20.9508 131.056 20.6023C130.818 20.2538 130.699 19.8163 130.699 19.2898V10.6818Z" fill="black"/>
</svg>
