<svg width="91" height="63" viewBox="0 0 91 63" fill="none" xmlns="http://www.w3.org/2000/svg">
<path d="M45.5 21.6471C42.3812 21.6471 39.853 19.1188 39.853 16C39.853 12.8812 42.3812 10.3529 45.5 10.3529C48.6188 10.3529 51.1471 12.8812 51.1471 16C51.1471 19.1188 48.6188 21.6471 45.5 21.6471Z" fill="#AE9AFF"/>
<path d="M34.6055 18.2821C32.9868 18.5623 31.8773 20.0973 32.4987 21.5912C33.3662 23.6768 34.7501 25.5349 36.5443 26.987C39.1099 29.0631 42.3458 30.1725 45.6701 30.1156C48.9945 30.0586 52.189 28.839 54.6793 26.6761C56.4207 25.1636 57.7378 23.2591 58.5306 21.1451C59.0985 19.6309 57.935 18.1348 56.3074 17.9102C54.6798 17.6857 53.2185 18.8487 52.4145 20.2562C51.9787 21.019 51.413 21.7111 50.7353 22.2998C49.3065 23.5408 47.4736 24.2405 45.5663 24.2732C43.6589 24.3058 41.8023 23.6694 40.3303 22.4781C39.632 21.913 39.0421 21.2407 38.5794 20.4932C37.726 19.1142 36.2241 18.0019 34.6055 18.2821Z" fill="#AE9AFF"/>
<path d="M59.5084 17.4048C59.5805 16.8399 59.6176 16.2644 59.6176 15.6805C59.6176 8.05998 53.297 1.88235 45.5 1.88235C37.703 1.88235 31.3823 8.05998 31.3823 15.6805C31.3823 16.4299 31.4435 17.1653 31.5611 17.8824C32.2096 17.0147 33.2216 16.3954 34.3148 16.207C35.4976 16.0031 36.5725 16.2835 37.4814 16.8076C37.4277 16.4394 37.3999 16.0631 37.3999 15.6805C37.3999 11.3082 41.0265 7.76375 45.5 7.76375C49.9735 7.76375 53.6 11.3082 53.6 15.6805C53.6 15.9687 53.5842 16.2534 53.5535 16.5337C54.4432 15.9788 55.5077 15.6617 56.6972 15.8252C57.7962 15.9761 58.8294 16.5602 59.5084 17.4048Z" fill="#5429FF"/>
<path d="M10.6705 47.3636V59H9.05682L3.14205 50.4659H3.03409V59H1.27841V47.3636H2.90341L8.82386 55.9091H8.93182V47.3636H10.6705ZM13.3915 59V47.3636H20.6074V48.875H15.1472V52.4205H20.0904V53.9261H15.1472V59H13.3915ZM22.3527 48.875V47.3636H31.3584V48.875H27.7277V59H25.9777V48.875H22.3527ZM37.9028 47.3636H40.0335L43.738 56.4091H43.8744L47.5789 47.3636H49.7096V59H48.0391V50.5795H47.9312L44.4994 58.983H43.113L39.6812 50.5739H39.5732V59H37.9028V47.3636ZM54.8256 59.1932C54.2725 59.1932 53.7725 59.0909 53.3256 58.8864C52.8786 58.678 52.5244 58.3769 52.2631 57.983C52.0055 57.589 51.8767 57.1061 51.8767 56.5341C51.8767 56.0417 51.9714 55.6364 52.1608 55.3182C52.3502 55 52.6059 54.7481 52.9278 54.5625C53.2498 54.3769 53.6097 54.2367 54.0074 54.142C54.4051 54.0473 54.8104 53.9754 55.2233 53.9261C55.746 53.8655 56.1703 53.8163 56.496 53.7784C56.8218 53.7367 57.0585 53.6705 57.2062 53.5795C57.354 53.4886 57.4278 53.3409 57.4278 53.1364V53.0966C57.4278 52.6004 57.2877 52.2159 57.0074 51.9432C56.7309 51.6705 56.318 51.5341 55.7687 51.5341C55.1968 51.5341 54.746 51.661 54.4165 51.9148C54.0907 52.1648 53.8653 52.4432 53.7403 52.75L52.1437 52.3864C52.3331 51.8561 52.6097 51.428 52.9733 51.1023C53.3407 50.7727 53.7631 50.5341 54.2403 50.3864C54.7176 50.2348 55.2195 50.1591 55.746 50.1591C56.0945 50.1591 56.4638 50.2008 56.854 50.2841C57.2479 50.3636 57.6153 50.5114 57.9562 50.7273C58.3009 50.9432 58.5831 51.2519 58.8028 51.6534C59.0225 52.0511 59.1324 52.5682 59.1324 53.2045V59H57.4733V57.8068H57.4051C57.2953 58.0265 57.1305 58.2424 56.9108 58.4545C56.6911 58.6667 56.4089 58.8428 56.0642 58.983C55.7195 59.1231 55.3066 59.1932 54.8256 59.1932ZM55.1949 57.8295C55.6646 57.8295 56.0661 57.7367 56.3994 57.5511C56.7366 57.3655 56.9922 57.1231 57.1665 56.8239C57.3445 56.5208 57.4335 56.197 57.4335 55.8523V54.7273C57.3729 54.7879 57.2555 54.8447 57.0812 54.8977C56.9108 54.947 56.7157 54.9905 56.496 55.0284C56.2763 55.0625 56.0623 55.0947 55.854 55.125C55.6456 55.1515 55.4714 55.1742 55.3312 55.1932C55.0017 55.2348 54.7006 55.3049 54.4278 55.4034C54.1589 55.5019 53.943 55.6439 53.7801 55.8295C53.621 56.0114 53.5415 56.2538 53.5415 56.5568C53.5415 56.9773 53.6968 57.2955 54.0074 57.5114C54.318 57.7235 54.7138 57.8295 55.1949 57.8295ZM61.5552 59V50.2727H63.1972V51.6591H63.2881C63.4472 51.1894 63.7275 50.8201 64.129 50.5511C64.5343 50.2784 64.9927 50.142 65.504 50.142C65.6101 50.142 65.7351 50.1458 65.879 50.1534C66.0268 50.161 66.1423 50.1705 66.2256 50.1818V51.8068C66.1574 51.7879 66.0362 51.767 65.862 51.7443C65.6877 51.7178 65.5135 51.7045 65.3393 51.7045C64.9377 51.7045 64.5798 51.7898 64.2654 51.9602C63.9548 52.1269 63.7086 52.3598 63.5268 52.6591C63.3449 52.9545 63.254 53.2917 63.254 53.6705V59H61.5552ZM69.4183 56.0398L69.4069 53.9659H69.7024L73.1797 50.2727H75.2138L71.2478 54.4773H70.9808L69.4183 56.0398ZM67.8558 59V47.3636H69.5547V59H67.8558ZM73.3672 59L70.2422 54.8523L71.4126 53.6648L75.4524 59H73.3672ZM80.324 59.1761C79.4642 59.1761 78.7237 58.9924 78.1024 58.625C77.485 58.2538 77.0077 57.733 76.6706 57.0625C76.3373 56.3883 76.1706 55.5985 76.1706 54.6932C76.1706 53.7992 76.3373 53.0114 76.6706 52.3295C77.0077 51.6477 77.4774 51.1155 78.0797 50.733C78.6858 50.3504 79.3941 50.1591 80.2047 50.1591C80.6971 50.1591 81.1744 50.2405 81.6365 50.4034C82.0987 50.5663 82.5134 50.822 82.8809 51.1705C83.2483 51.5189 83.538 51.9716 83.7502 52.5284C83.9623 53.0814 84.0684 53.7538 84.0684 54.5455V55.1477H77.1309V53.875H82.4036C82.4036 53.428 82.3127 53.0322 82.1309 52.6875C81.949 52.339 81.6934 52.0644 81.3638 51.8636C81.038 51.6629 80.6555 51.5625 80.2161 51.5625C79.7388 51.5625 79.3221 51.6799 78.9661 51.9148C78.6138 52.1458 78.3411 52.4489 78.1479 52.8239C77.9585 53.1951 77.8638 53.5985 77.8638 54.0341V55.0284C77.8638 55.6117 77.9661 56.108 78.1706 56.517C78.379 56.9261 78.6687 57.2386 79.0399 57.4545C79.4112 57.6667 79.8449 57.7727 80.3411 57.7727C80.663 57.7727 80.9566 57.7273 81.2218 57.6364C81.4869 57.5417 81.7161 57.4015 81.9093 57.2159C82.1024 57.0303 82.2502 56.8011 82.3524 56.5284L83.9604 56.8182C83.8316 57.2917 83.6005 57.7064 83.2672 58.0625C82.9377 58.4148 82.5229 58.6894 82.0229 58.8864C81.5267 59.0795 80.9604 59.1761 80.324 59.1761ZM90.1872 50.2727V51.6364H85.4201V50.2727H90.1872ZM86.6985 48.1818H88.3974V56.4375C88.3974 56.767 88.4466 57.0152 88.5451 57.1818C88.6436 57.3447 88.7705 57.4564 88.9258 57.517C89.0849 57.5739 89.2572 57.6023 89.4428 57.6023C89.5792 57.6023 89.6985 57.5928 89.8008 57.5739C89.9031 57.5549 89.9826 57.5398 90.0394 57.5284L90.3463 58.9318C90.2478 58.9697 90.1076 59.0076 89.9258 59.0455C89.744 59.0871 89.5167 59.1098 89.244 59.1136C88.797 59.1212 88.3803 59.0417 87.994 58.875C87.6076 58.7083 87.2951 58.4508 87.0565 58.1023C86.8178 57.7538 86.6985 57.3163 86.6985 56.7898V48.1818Z" fill="black"/>
</svg>
